<mxfile host="app.diagrams.net" agent="Mozilla/5.0 (Windows NT 10.0; Win64; x64) AppleWebKit/537.36 (KHTML, like Gecko) Chrome/128.0.0.0 Safari/537.36 Edg/128.0.0.0" version="24.7.12">
  <diagram name="Page-1" id="c7488fd3-1785-93aa-aadb-54a6760d102a">
    <mxGraphModel dx="979" dy="524" grid="1" gridSize="10" guides="1" tooltips="1" connect="1" arrows="1" fold="1" page="1" pageScale="1" pageWidth="1100" pageHeight="850" background="none" math="0" shadow="0">
      <root>
        <mxCell id="0" />
        <mxCell id="1" parent="0" />
        <mxCell id="2b4e8129b02d487f-1" value="&lt;font style=&quot;font-size: 11px;&quot;&gt;Gestión de Ventas&lt;/font&gt;" style="swimlane;html=1;childLayout=stackLayout;horizontal=1;startSize=20;horizontalStack=0;rounded=0;shadow=0;labelBackgroundColor=none;strokeWidth=1;fontFamily=Verdana;fontSize=8;align=center;" parent="1" vertex="1">
          <mxGeometry x="110" y="50" width="680" height="320" as="geometry" />
        </mxCell>
        <mxCell id="2b4e8129b02d487f-2" value="ÁREA DE VENTAS" style="swimlane;html=1;startSize=20;horizontal=0;" parent="2b4e8129b02d487f-1" vertex="1">
          <mxGeometry y="20" width="680" height="150" as="geometry" />
        </mxCell>
        <mxCell id="2b4e8129b02d487f-18" style="edgeStyle=orthogonalEdgeStyle;rounded=0;html=1;labelBackgroundColor=none;startArrow=none;startFill=0;startSize=5;endArrow=classicThin;endFill=1;endSize=5;jettySize=auto;orthogonalLoop=1;strokeWidth=1;fontFamily=Verdana;fontSize=8" parent="2b4e8129b02d487f-2" source="2b4e8129b02d487f-5" target="tXVH7XBkEAaDwxEqHEUf-9" edge="1">
          <mxGeometry relative="1" as="geometry">
            <mxPoint x="119.99999999999977" y="66.70588235294122" as="targetPoint" />
          </mxGeometry>
        </mxCell>
        <mxCell id="2b4e8129b02d487f-5" value="&lt;font style=&quot;font-size: 11px;&quot;&gt;Inicio&lt;/font&gt;" style="ellipse;whiteSpace=wrap;html=1;rounded=0;shadow=0;labelBackgroundColor=none;strokeWidth=1;fontFamily=Verdana;fontSize=8;align=center;" parent="2b4e8129b02d487f-2" vertex="1">
          <mxGeometry x="40" y="50" width="50" height="50" as="geometry" />
        </mxCell>
        <mxCell id="eSjwZEKq3TR9o_CCrWoi-11" value="" style="edgeStyle=orthogonalEdgeStyle;rounded=0;orthogonalLoop=1;jettySize=auto;html=1;" parent="2b4e8129b02d487f-2" source="eSjwZEKq3TR9o_CCrWoi-1" target="eSjwZEKq3TR9o_CCrWoi-10" edge="1">
          <mxGeometry relative="1" as="geometry" />
        </mxCell>
        <mxCell id="eSjwZEKq3TR9o_CCrWoi-1" value="&lt;font face=&quot;Verdana&quot;&gt;Datos detallados del producto&lt;/font&gt;" style="shape=document;whiteSpace=wrap;html=1;boundedLbl=1;align=center;" parent="2b4e8129b02d487f-2" vertex="1">
          <mxGeometry x="430" y="45" width="110" height="70" as="geometry" />
        </mxCell>
        <mxCell id="eSjwZEKq3TR9o_CCrWoi-10" value="&lt;font style=&quot;font-size: 12px;&quot;&gt;Fin&amp;nbsp;&lt;/font&gt;" style="ellipse;whiteSpace=wrap;html=1;rounded=0;shadow=0;labelBackgroundColor=none;strokeWidth=1;fontFamily=Verdana;fontSize=8;align=center;" parent="2b4e8129b02d487f-2" vertex="1">
          <mxGeometry x="600" y="55" width="50" height="50" as="geometry" />
        </mxCell>
        <mxCell id="tXVH7XBkEAaDwxEqHEUf-9" value="Datos del proveedor" style="shape=manualInput;whiteSpace=wrap;html=1;" parent="2b4e8129b02d487f-2" vertex="1">
          <mxGeometry x="140" y="35" width="100" height="80" as="geometry" />
        </mxCell>
        <mxCell id="tXVH7XBkEAaDwxEqHEUf-10" style="edgeStyle=orthogonalEdgeStyle;rounded=0;orthogonalLoop=1;jettySize=auto;html=1;exitX=0.5;exitY=1;exitDx=0;exitDy=0;" parent="2b4e8129b02d487f-2" source="tXVH7XBkEAaDwxEqHEUf-9" target="tXVH7XBkEAaDwxEqHEUf-9" edge="1">
          <mxGeometry relative="1" as="geometry" />
        </mxCell>
        <mxCell id="tXVH7XBkEAaDwxEqHEUf-13" style="edgeStyle=orthogonalEdgeStyle;rounded=0;orthogonalLoop=1;jettySize=auto;html=1;" parent="2b4e8129b02d487f-1" source="tXVH7XBkEAaDwxEqHEUf-9" target="tXVH7XBkEAaDwxEqHEUf-15" edge="1">
          <mxGeometry relative="1" as="geometry">
            <mxPoint x="269.9999999999998" y="245" as="targetPoint" />
            <Array as="points">
              <mxPoint x="200" y="245" />
            </Array>
          </mxGeometry>
        </mxCell>
        <mxCell id="tXVH7XBkEAaDwxEqHEUf-1" value="ÁREA FINANCIERA" style="swimlane;html=1;startSize=20;horizontal=0;" parent="2b4e8129b02d487f-1" vertex="1">
          <mxGeometry y="170" width="680" height="150" as="geometry" />
        </mxCell>
        <mxCell id="tXVH7XBkEAaDwxEqHEUf-15" value="Información de producto" style="rounded=1;whiteSpace=wrap;html=1;" parent="tXVH7XBkEAaDwxEqHEUf-1" vertex="1">
          <mxGeometry x="280" y="60" width="120" height="60" as="geometry" />
        </mxCell>
        <mxCell id="tXVH7XBkEAaDwxEqHEUf-2" style="edgeStyle=orthogonalEdgeStyle;rounded=0;html=1;labelBackgroundColor=none;startArrow=none;startFill=0;startSize=5;endArrow=classicThin;endFill=1;endSize=5;jettySize=auto;orthogonalLoop=1;strokeWidth=1;fontFamily=Verdana;fontSize=8;entryX=0.508;entryY=0.896;entryDx=0;entryDy=0;entryPerimeter=0;" parent="2b4e8129b02d487f-1" source="tXVH7XBkEAaDwxEqHEUf-15" target="eSjwZEKq3TR9o_CCrWoi-1" edge="1">
          <mxGeometry relative="1" as="geometry">
            <mxPoint x="389.9999999999998" y="245" as="sourcePoint" />
            <mxPoint x="429.9999999999998" y="247.52941176470586" as="targetPoint" />
          </mxGeometry>
        </mxCell>
      </root>
    </mxGraphModel>
  </diagram>
</mxfile>
